# Blender v2.81 (sub 16) OBJ File: 'shelf2.blend'
# www.blender.org
mtllib shelf2.mtl
o Front_Cube
v 0.090000 -2.044985 -3.550000
v 0.090000 -2.044985 3.550000
v -0.090000 -2.044985 -3.550000
v -0.090000 -2.044985 3.550000
v -4.857828 -2.328853 4.097112
v 0.090000 1.635015 3.162838
v 0.090000 1.434345 3.550000
v 0.090000 1.576240 3.436603
v -0.090000 1.434345 3.550000
v -0.090000 1.635015 3.162838
v -0.090000 1.576240 3.436603
v 0.090000 1.409056 -3.550000
v 0.090000 1.635015 -3.114048
v 0.090000 1.568833 -3.422313
v -0.090000 1.635015 -3.114048
v -0.090000 1.409056 -3.550000
v -0.090000 1.568833 -3.422313
vt 0.375000 0.000000
vt 0.611367 0.000000
vt 0.621007 0.003993
vt 0.625000 0.013632
vt 0.625000 0.234650
vt 0.620504 0.245504
vt 0.609650 0.250000
vt 0.375000 0.250000
vt 0.125000 0.500000
vt 0.375000 0.500000
vt 0.375000 0.750000
vt 0.125000 0.750000
vt 0.611367 0.750000
vt 0.611367 1.000000
vt 0.375000 1.000000
vt 0.625000 0.515350
vt 0.875000 0.515350
vt 0.875000 0.736368
vt 0.625000 0.736368
vt 0.875000 0.750000
vt 0.625000 0.750000
vt 0.625000 1.000000
vt 0.609650 0.500000
vt 0.625000 0.500000
vt 0.875000 0.500000
vt 0.625000 0.250000
vt 0.620504 0.504496
vt 0.621007 0.746007
vn -1.0000 -0.0000 0.0000
vn 0.0000 -1.0000 0.0000
vn 0.0000 0.0000 1.0000
vn 0.0000 1.0000 0.0000
vn 0.0000 0.9777 0.2099
vn 0.0000 0.6243 0.7812
vn 0.0000 0.0000 -1.0000
vn 0.0000 0.9777 -0.2099
vn 0.0000 0.6243 -0.7812
vn 1.0000 -0.0000 0.0000
usemtl Material
s off
f 4/1/1 9/2/1 11/3/1 10/4/1 15/5/1 17/6/1 16/7/1 3/8/1
f 3/9/2 1/10/2 2/11/2 4/12/2
f 2/11/3 7/13/3 9/14/3 4/15/3
f 13/16/4 15/17/4 10/18/4 6/19/4
f 6/19/5 10/18/5 11/20/5 8/21/5
f 8/21/6 11/22/6 9/14/6 7/13/6
f 3/8/7 16/7/7 12/23/7 1/10/7
f 15/17/8 13/16/8 14/24/8 17/25/8
f 17/26/9 14/24/9 12/23/9 16/7/9
f 1/10/10 12/23/10 14/27/10 13/16/10 6/19/10 8/28/10 7/13/10 2/11/10
o RightSide_Cube.001
v -0.080000 -2.050000 3.350000
v -0.080000 -2.050000 3.550000
v -2.700000 2.050000 3.350000
v -2.700000 -2.050000 3.350000
v -2.700000 2.050000 3.550000
v -2.700000 -2.050000 3.550000
v -0.541028 2.050000 3.350000
v -0.080000 1.328544 3.350000
v -0.421705 2.025417 3.350000
v -0.310514 1.953343 3.350000
v -0.215032 1.838690 3.350000
v -0.141766 1.689272 3.350000
v -0.095709 1.515271 3.350000
v -0.080000 1.328544 3.550000
v -0.541028 2.050000 3.550000
v -0.095709 1.515271 3.550000
v -0.141766 1.689272 3.550000
v -0.215032 1.838690 3.550000
v -0.310514 1.953343 3.550000
v -0.421705 2.025417 3.550000
vt 0.375000 0.750000
vt 0.581009 0.750000
vt 0.592395 0.750500
vt 0.603004 0.751965
vt 0.620705 0.754295
vt 0.637699 0.757332
vt 0.646237 0.760868
vt 0.625000 0.793991
vt 0.625000 1.000000
vt 0.375000 1.000000
vt 0.375000 0.000000
vt 0.625000 0.000000
vt 0.625000 0.250000
vt 0.375000 0.250000
vt 0.125000 0.500000
vt 0.375000 0.500000
vt 0.125000 0.750000
vt 0.668991 0.500000
vt 0.875000 0.500000
vt 0.875000 0.750000
vt 0.668991 0.750000
vt 0.581009 0.500000
vt 0.646237 0.489132
vt 0.637699 0.492668
vt 0.620705 0.495705
vt 0.603004 0.498035
vt 0.592395 0.499500
vt 0.625000 0.456009
vn 0.0000 0.0000 1.0000
vn -1.0000 0.0000 0.0000
vn 0.0000 -1.0000 0.0000
vn 0.0000 1.0000 0.0000
vn 1.0000 0.0000 0.0000
vn 0.2018 0.9794 0.0000
vn 0.5439 0.8391 0.0000
vn 0.7684 0.6399 0.0000
vn 0.8979 0.4403 0.0000
vn 0.9667 0.2559 0.0000
vn 0.9965 0.0838 0.0000
vn -0.0000 0.0000 -1.0000
usemtl Material.001
s off
f 19/29/11 31/30/11 33/31/11 34/32/11 35/33/11 36/34/11 37/35/11 32/36/11 22/37/11 23/38/11
f 23/39/12 22/40/12 20/41/12 21/42/12
f 21/43/13 18/44/13 19/29/13 23/45/13
f 24/46/14 20/47/14 22/48/14 32/49/14
f 18/44/15 25/50/15 31/30/15 19/29/15
f 24/46/16 32/49/16 37/35/16 26/51/16
f 26/51/17 37/35/17 36/34/17 27/52/17
f 27/52/18 36/34/18 35/33/18 28/53/18
f 28/53/19 35/33/19 34/32/19 29/54/19
f 29/54/20 34/32/20 33/31/20 30/55/20
f 30/55/21 33/31/21 31/30/21 25/50/21
f 21/42/22 20/41/22 24/56/22 26/51/22 27/52/22 28/53/22 29/54/22 30/55/22 25/50/22 18/44/22
o Base_Cube.002
v -0.050000 -1.950000 -3.550000
v -0.050000 -2.050000 -3.550000
v -0.050000 -1.950000 3.550000
v -0.050000 -2.050000 3.550000
v -2.710000 -1.950000 -3.550000
v -2.710000 -2.050000 -3.550000
v -2.710000 -1.950000 3.550000
v -2.710000 -2.050000 3.550000
vt 0.625000 0.500000
vt 0.875000 0.500000
vt 0.875000 0.750000
vt 0.625000 0.750000
vt 0.375000 0.750000
vt 0.625000 1.000000
vt 0.375000 1.000000
vt 0.375000 0.000000
vt 0.625000 0.000000
vt 0.625000 0.250000
vt 0.375000 0.250000
vt 0.125000 0.500000
vt 0.375000 0.500000
vt 0.125000 0.750000
vn 0.0000 1.0000 0.0000
vn 0.0000 0.0000 1.0000
vn -1.0000 0.0000 0.0000
vn 0.0000 -1.0000 0.0000
vn 1.0000 0.0000 0.0000
vn 0.0000 0.0000 -1.0000
usemtl Material.002
s off
f 38/57/23 42/58/23 44/59/23 40/60/23
f 41/61/24 40/60/24 44/62/24 45/63/24
f 45/64/25 44/65/25 42/66/25 43/67/25
f 43/68/26 39/69/26 41/61/26 45/70/26
f 39/69/27 38/57/27 40/60/27 41/61/27
f 43/67/28 42/66/28 38/57/28 39/69/28
o Back_Cube.003
v -2.670000 2.050000 -3.550000
v -2.670000 -2.050000 -3.550000
v -2.670000 2.050000 3.550000
v -2.670000 -2.050000 3.550000
v -2.850000 2.050000 -3.550000
v -2.850000 -2.050000 -3.550000
v -2.850000 2.050000 3.550000
v -2.850000 -2.050000 3.550000
vt 0.625000 0.500000
vt 0.875000 0.500000
vt 0.875000 0.750000
vt 0.625000 0.750000
vt 0.375000 0.750000
vt 0.625000 1.000000
vt 0.375000 1.000000
vt 0.375000 0.000000
vt 0.625000 0.000000
vt 0.625000 0.250000
vt 0.375000 0.250000
vt 0.125000 0.500000
vt 0.375000 0.500000
vt 0.125000 0.750000
vn 0.0000 1.0000 0.0000
vn 0.0000 0.0000 1.0000
vn -1.0000 0.0000 0.0000
vn 0.0000 -1.0000 0.0000
vn 1.0000 0.0000 0.0000
vn 0.0000 0.0000 -1.0000
usemtl Material.003
s off
f 46/71/29 50/72/29 52/73/29 48/74/29
f 49/75/30 48/74/30 52/76/30 53/77/30
f 53/78/31 52/79/31 50/80/31 51/81/31
f 51/82/32 47/83/32 49/75/32 53/84/32
f 47/83/33 46/71/33 48/74/33 49/75/33
f 51/81/34 50/80/34 46/71/34 47/83/34
o LeftSide_Cube.004
v -0.080000 -2.050000 -3.549345
v -0.080000 -2.050000 -3.349346
v -2.700000 2.050000 -3.549345
v -2.700000 -2.050000 -3.549345
v -2.700000 2.050000 -3.349346
v -2.700000 -2.050000 -3.349346
v -0.541028 2.050000 -3.549345
v -0.080000 1.328544 -3.549345
v -0.421705 2.025417 -3.549345
v -0.310514 1.953343 -3.549345
v -0.215032 1.838690 -3.549345
v -0.141766 1.689272 -3.549345
v -0.095709 1.515271 -3.549345
v -0.080000 1.328544 -3.349346
v -0.541028 2.050000 -3.349346
v -0.095709 1.515271 -3.349346
v -0.141766 1.689272 -3.349346
v -0.215032 1.838690 -3.349346
v -0.310514 1.953343 -3.349346
v -0.421705 2.025417 -3.349346
vt 0.375000 0.750000
vt 0.581009 0.750000
vt 0.592395 0.750500
vt 0.603004 0.751965
vt 0.620705 0.754295
vt 0.637699 0.757332
vt 0.646237 0.760868
vt 0.625000 0.793991
vt 0.625000 1.000000
vt 0.375000 1.000000
vt 0.375000 0.000000
vt 0.625000 0.000000
vt 0.625000 0.250000
vt 0.375000 0.250000
vt 0.125000 0.500000
vt 0.375000 0.500000
vt 0.125000 0.750000
vt 0.668991 0.500000
vt 0.875000 0.500000
vt 0.875000 0.750000
vt 0.668991 0.750000
vt 0.581009 0.500000
vt 0.646237 0.489132
vt 0.637699 0.492668
vt 0.620705 0.495705
vt 0.603004 0.498035
vt 0.592395 0.499500
vt 0.625000 0.456009
vn 0.0000 0.0000 1.0000
vn -1.0000 0.0000 0.0000
vn 0.0000 -1.0000 0.0000
vn 0.0000 1.0000 0.0000
vn 1.0000 0.0000 0.0000
vn 0.2018 0.9794 0.0000
vn 0.5439 0.8391 0.0000
vn 0.7684 0.6399 0.0000
vn 0.8979 0.4403 0.0000
vn 0.9667 0.2559 0.0000
vn 0.9965 0.0838 0.0000
vn 0.0000 0.0000 -1.0000
usemtl Material.004
s off
f 55/85/35 67/86/35 69/87/35 70/88/35 71/89/35 72/90/35 73/91/35 68/92/35 58/93/35 59/94/35
f 59/95/36 58/96/36 56/97/36 57/98/36
f 57/99/37 54/100/37 55/85/37 59/101/37
f 60/102/38 56/103/38 58/104/38 68/105/38
f 54/100/39 61/106/39 67/86/39 55/85/39
f 60/102/40 68/105/40 73/91/40 62/107/40
f 62/107/41 73/91/41 72/90/41 63/108/41
f 63/108/42 72/90/42 71/89/42 64/109/42
f 64/109/43 71/89/43 70/88/43 65/110/43
f 65/110/44 70/88/44 69/87/44 66/111/44
f 66/111/45 69/87/45 67/86/45 61/106/45
f 57/98/46 56/97/46 60/112/46 62/107/46 63/108/46 64/109/46 65/110/46 66/111/46 61/106/46 54/100/46
o CenterDivider_Cube.005
v -0.080000 -2.050000 -0.114752
v -0.080000 -2.050000 0.085248
v -2.700000 2.050000 -0.114752
v -2.700000 -2.050000 -0.114752
v -2.700000 2.050000 0.085248
v -2.700000 -2.050000 0.085248
v -0.541028 2.050000 -0.114752
v -0.080000 1.328544 -0.114752
v -0.421705 2.025417 -0.114752
v -0.310514 1.953343 -0.114752
v -0.215032 1.838690 -0.114752
v -0.141766 1.689272 -0.114752
v -0.095709 1.515271 -0.114752
v -0.080000 1.328544 0.085248
v -0.541028 2.050000 0.085248
v -0.095709 1.515271 0.085248
v -0.141766 1.689272 0.085248
v -0.215032 1.838690 0.085248
v -0.310514 1.953343 0.085248
v -0.421705 2.025417 0.085248
vt 0.375000 0.750000
vt 0.581009 0.750000
vt 0.592395 0.750500
vt 0.603004 0.751965
vt 0.620705 0.754295
vt 0.637699 0.757332
vt 0.646237 0.760868
vt 0.625000 0.793991
vt 0.625000 1.000000
vt 0.375000 1.000000
vt 0.375000 0.000000
vt 0.625000 0.000000
vt 0.625000 0.250000
vt 0.375000 0.250000
vt 0.125000 0.500000
vt 0.375000 0.500000
vt 0.125000 0.750000
vt 0.668991 0.500000
vt 0.875000 0.500000
vt 0.875000 0.750000
vt 0.668991 0.750000
vt 0.581009 0.500000
vt 0.646237 0.489132
vt 0.637699 0.492668
vt 0.620705 0.495705
vt 0.603004 0.498035
vt 0.592395 0.499500
vt 0.625000 0.456009
vn 0.0000 0.0000 1.0000
vn -1.0000 0.0000 0.0000
vn 0.0000 -1.0000 0.0000
vn 0.0000 1.0000 0.0000
vn 1.0000 0.0000 0.0000
vn 0.2018 0.9794 0.0000
vn 0.5439 0.8391 0.0000
vn 0.7684 0.6399 0.0000
vn 0.8979 0.4403 0.0000
vn 0.9667 0.2559 0.0000
vn 0.9965 0.0838 0.0000
vn -0.0000 0.0000 -1.0000
usemtl Material.005
s off
f 75/113/47 87/114/47 89/115/47 90/116/47 91/117/47 92/118/47 93/119/47 88/120/47 78/121/47 79/122/47
f 79/123/48 78/124/48 76/125/48 77/126/48
f 77/127/49 74/128/49 75/113/49 79/129/49
f 80/130/50 76/131/50 78/132/50 88/133/50
f 74/128/51 81/134/51 87/114/51 75/113/51
f 80/130/52 88/133/52 93/119/52 82/135/52
f 82/135/53 93/119/53 92/118/53 83/136/53
f 83/136/54 92/118/54 91/117/54 84/137/54
f 84/137/55 91/117/55 90/116/55 85/138/55
f 85/138/56 90/116/56 89/115/56 86/139/56
f 86/139/57 89/115/57 87/114/57 81/134/57
f 77/126/58 76/125/58 80/140/58 82/135/58 83/136/58 84/137/58 85/138/58 86/139/58 81/134/58 74/128/58
