# Blender v2.81 (sub 16) OBJ File: 'shelf4.blend'
# www.blender.org
mtllib shelf4.mtl
o Front_Cube
v 0.090000 -2.044985 -8.520000
v 0.090000 -2.044985 8.520000
v -0.090000 -2.044985 -8.520000
v -0.090000 -2.044985 8.520000
v -4.857828 -2.328853 9.833070
v 0.090000 1.635015 7.590811
v 0.090000 1.434345 8.520000
v 0.090000 1.576240 8.247847
v -0.090000 1.434345 8.520000
v -0.090000 1.635015 7.590811
v -0.090000 1.576240 8.247847
v 0.090000 1.409056 -8.520000
v 0.090000 1.635015 -7.473716
v 0.090000 1.568833 -8.213551
v -0.090000 1.635015 -7.473716
v -0.090000 1.409056 -8.520000
v -0.090000 1.568833 -8.213551
vt 0.375000 0.000000
vt 0.611367 0.000000
vt 0.621007 0.003993
vt 0.625000 0.013632
vt 0.625000 0.234650
vt 0.620504 0.245504
vt 0.609650 0.250000
vt 0.375000 0.250000
vt 0.125000 0.500000
vt 0.375000 0.500000
vt 0.375000 0.750000
vt 0.125000 0.750000
vt 0.611367 0.750000
vt 0.611367 1.000000
vt 0.375000 1.000000
vt 0.625000 0.515350
vt 0.875000 0.515350
vt 0.875000 0.736368
vt 0.625000 0.736368
vt 0.875000 0.750000
vt 0.625000 0.750000
vt 0.625000 1.000000
vt 0.609650 0.500000
vt 0.625000 0.500000
vt 0.875000 0.500000
vt 0.625000 0.250000
vt 0.620504 0.504496
vt 0.621007 0.746007
vn -1.0000 -0.0000 0.0000
vn 0.0000 -1.0000 0.0000
vn 0.0000 0.0000 1.0000
vn 0.0000 1.0000 0.0000
vn 0.0000 0.9960 0.0891
vn 0.0000 0.8867 0.4623
vn 0.0000 0.0000 -1.0000
vn 0.0000 0.9960 -0.0891
vn 0.0000 0.8867 -0.4623
vn 1.0000 -0.0000 0.0000
usemtl Material
s off
f 4/1/1 9/2/1 11/3/1 10/4/1 15/5/1 17/6/1 16/7/1 3/8/1
f 3/9/2 1/10/2 2/11/2 4/12/2
f 2/11/3 7/13/3 9/14/3 4/15/3
f 13/16/4 15/17/4 10/18/4 6/19/4
f 6/19/5 10/18/5 11/20/5 8/21/5
f 8/21/6 11/22/6 9/14/6 7/13/6
f 3/8/7 16/7/7 12/23/7 1/10/7
f 15/17/8 13/16/8 14/24/8 17/25/8
f 17/26/9 14/24/9 12/23/9 16/7/9
f 1/10/10 12/23/10 14/27/10 13/16/10 6/19/10 8/28/10 7/13/10 2/11/10
o RightSide_Cube.001
v 0.086090 -2.050000 8.348937
v 0.086090 -2.050000 8.548938
v -3.633910 2.050000 8.348937
v -3.633910 -2.050000 8.348937
v -3.633910 2.050000 8.548938
v -3.633910 -2.050000 8.548938
v -0.568499 2.050000 8.348937
v 0.086090 1.328544 8.348937
v -0.399079 2.025417 8.348937
v -0.241205 1.953343 8.348937
v -0.105635 1.838690 8.348937
v -0.001608 1.689272 8.348937
v 0.063785 1.515271 8.348937
v 0.086090 1.328544 8.548938
v -0.568499 2.050000 8.548938
v 0.063785 1.515271 8.548938
v -0.001608 1.689272 8.548938
v -0.105635 1.838690 8.548938
v -0.241205 1.953343 8.548938
v -0.399079 2.025417 8.548938
vt 0.375000 0.750000
vt 0.581009 0.750000
vt 0.592395 0.750500
vt 0.603004 0.751965
vt 0.620705 0.754295
vt 0.637699 0.757332
vt 0.646237 0.760868
vt 0.625000 0.793991
vt 0.625000 1.000000
vt 0.375000 1.000000
vt 0.375000 0.000000
vt 0.625000 0.000000
vt 0.625000 0.250000
vt 0.375000 0.250000
vt 0.125000 0.500000
vt 0.375000 0.500000
vt 0.125000 0.750000
vt 0.668991 0.500000
vt 0.875000 0.500000
vt 0.875000 0.750000
vt 0.668991 0.750000
vt 0.581009 0.500000
vt 0.646237 0.489132
vt 0.637699 0.492668
vt 0.620705 0.495705
vt 0.603004 0.498035
vt 0.592395 0.499500
vt 0.625000 0.456009
vn 0.0000 0.0000 1.0000
vn -1.0000 0.0000 0.0000
vn 0.0000 -1.0000 0.0000
vn 0.0000 1.0000 0.0000
vn 1.0000 0.0000 0.0000
vn 0.1436 0.9896 0.0000
vn 0.4153 0.9097 0.0000
vn 0.6457 0.7636 0.0000
vn 0.8207 0.5714 0.0000
vn 0.9361 0.3518 0.0000
vn 0.9929 0.1186 0.0000
vn 0.0000 0.0000 -1.0000
usemtl Material.001
s off
f 19/29/11 31/30/11 33/31/11 34/32/11 35/33/11 36/34/11 37/35/11 32/36/11 22/37/11 23/38/11
f 23/39/12 22/40/12 20/41/12 21/42/12
f 21/43/13 18/44/13 19/29/13 23/45/13
f 24/46/14 20/47/14 22/48/14 32/49/14
f 18/44/15 25/50/15 31/30/15 19/29/15
f 24/46/16 32/49/16 37/35/16 26/51/16
f 26/51/17 37/35/17 36/34/17 27/52/17
f 27/52/18 36/34/18 35/33/18 28/53/18
f 28/53/19 35/33/19 34/32/19 29/54/19
f 29/54/20 34/32/20 33/31/20 30/55/20
f 30/55/21 33/31/21 31/30/21 25/50/21
f 21/42/22 20/41/22 24/56/22 26/51/22 27/52/22 28/53/22 29/54/22 30/55/22 25/50/22 18/44/22
o Base_Cube.002
v 0.053828 -1.950000 -8.520000
v 0.053828 -2.050000 -8.520000
v 0.053828 -1.950000 8.520000
v 0.053828 -2.050000 8.520000
v -3.546172 -1.950000 -8.520000
v -3.546172 -2.050000 -8.520000
v -3.546172 -1.950000 8.520000
v -3.546172 -2.050000 8.520000
vt 0.625000 0.500000
vt 0.875000 0.500000
vt 0.875000 0.750000
vt 0.625000 0.750000
vt 0.375000 0.750000
vt 0.625000 1.000000
vt 0.375000 1.000000
vt 0.375000 0.000000
vt 0.625000 0.000000
vt 0.625000 0.250000
vt 0.375000 0.250000
vt 0.125000 0.500000
vt 0.375000 0.500000
vt 0.125000 0.750000
vn 0.0000 1.0000 0.0000
vn 0.0000 0.0000 1.0000
vn -1.0000 0.0000 0.0000
vn 0.0000 -1.0000 0.0000
vn 1.0000 0.0000 0.0000
vn 0.0000 0.0000 -1.0000
usemtl Material.002
s off
f 38/57/23 42/58/23 44/59/23 40/60/23
f 41/61/24 40/60/24 44/62/24 45/63/24
f 45/64/25 44/65/25 42/66/25 43/67/25
f 43/68/26 39/69/26 41/61/26 45/70/26
f 39/69/27 38/57/27 40/60/27 41/61/27
f 43/67/28 42/66/28 38/57/28 39/69/28
o Back_Cube.003
v -3.482754 2.050000 -8.520000
v -3.482754 -2.050000 -8.520000
v -3.482754 2.050000 8.520000
v -3.482754 -2.050000 8.520000
v -3.662754 2.050000 -8.520000
v -3.662754 -2.050000 -8.520000
v -3.662754 2.050000 8.520000
v -3.662754 -2.050000 8.520000
vt 0.625000 0.500000
vt 0.875000 0.500000
vt 0.875000 0.750000
vt 0.625000 0.750000
vt 0.375000 0.750000
vt 0.625000 1.000000
vt 0.375000 1.000000
vt 0.375000 0.000000
vt 0.625000 0.000000
vt 0.625000 0.250000
vt 0.375000 0.250000
vt 0.125000 0.500000
vt 0.375000 0.500000
vt 0.125000 0.750000
vn 0.0000 1.0000 0.0000
vn 0.0000 0.0000 1.0000
vn -1.0000 0.0000 0.0000
vn 0.0000 -1.0000 0.0000
vn 1.0000 0.0000 0.0000
vn 0.0000 0.0000 -1.0000
usemtl Material.003
s off
f 46/71/29 50/72/29 52/73/29 48/74/29
f 49/75/30 48/74/30 52/76/30 53/77/30
f 53/78/31 52/79/31 50/80/31 51/81/31
f 51/82/32 47/83/32 49/75/32 53/84/32
f 47/83/33 46/71/33 48/74/33 49/75/33
f 51/81/34 50/80/34 46/71/34 47/83/34
o LeftSide_Cube.004
v 0.086090 -2.050000 -8.526653
v 0.086090 -2.050000 -8.326653
v -3.633910 2.050000 -8.526653
v -3.633910 -2.050000 -8.526653
v -3.633910 2.050000 -8.326653
v -3.633910 -2.050000 -8.326653
v -0.568499 2.050000 -8.526653
v 0.086090 1.328544 -8.526653
v -0.399079 2.025417 -8.526653
v -0.241205 1.953343 -8.526653
v -0.105635 1.838690 -8.526653
v -0.001608 1.689272 -8.526653
v 0.063785 1.515271 -8.526653
v 0.086090 1.328544 -8.326653
v -0.568499 2.050000 -8.326653
v 0.063785 1.515271 -8.326653
v -0.001608 1.689272 -8.326653
v -0.105635 1.838690 -8.326653
v -0.241205 1.953343 -8.326653
v -0.399079 2.025417 -8.326653
vt 0.375000 0.750000
vt 0.581009 0.750000
vt 0.592395 0.750500
vt 0.603004 0.751965
vt 0.620705 0.754295
vt 0.637699 0.757332
vt 0.646237 0.760868
vt 0.625000 0.793991
vt 0.625000 1.000000
vt 0.375000 1.000000
vt 0.375000 0.000000
vt 0.625000 0.000000
vt 0.625000 0.250000
vt 0.375000 0.250000
vt 0.125000 0.500000
vt 0.375000 0.500000
vt 0.125000 0.750000
vt 0.668991 0.500000
vt 0.875000 0.500000
vt 0.875000 0.750000
vt 0.668991 0.750000
vt 0.581009 0.500000
vt 0.646237 0.489132
vt 0.637699 0.492668
vt 0.620705 0.495705
vt 0.603004 0.498035
vt 0.592395 0.499500
vt 0.625000 0.456009
vn 0.0000 0.0000 1.0000
vn -1.0000 0.0000 0.0000
vn 0.0000 -1.0000 0.0000
vn 0.0000 1.0000 0.0000
vn 1.0000 0.0000 0.0000
vn 0.1436 0.9896 0.0000
vn 0.4153 0.9097 0.0000
vn 0.6457 0.7636 0.0000
vn 0.8207 0.5714 0.0000
vn 0.9361 0.3518 0.0000
vn 0.9929 0.1186 0.0000
vn 0.0000 0.0000 -1.0000
usemtl Material.004
s off
f 55/85/35 67/86/35 69/87/35 70/88/35 71/89/35 72/90/35 73/91/35 68/92/35 58/93/35 59/94/35
f 59/95/36 58/96/36 56/97/36 57/98/36
f 57/99/37 54/100/37 55/85/37 59/101/37
f 60/102/38 56/103/38 58/104/38 68/105/38
f 54/100/39 61/106/39 67/86/39 55/85/39
f 60/102/40 68/105/40 73/91/40 62/107/40
f 62/107/41 73/91/41 72/90/41 63/108/41
f 63/108/42 72/90/42 71/89/42 64/109/42
f 64/109/43 71/89/43 70/88/43 65/110/43
f 65/110/44 70/88/44 69/87/44 66/111/44
f 66/111/45 69/87/45 67/86/45 61/106/45
f 57/98/46 56/97/46 60/112/46 62/107/46 63/108/46 64/109/46 65/110/46 66/111/46 61/106/46 54/100/46
o Front.001_Cube.006
v -7.473149 -2.044985 8.522488
v -7.414832 -2.044985 -8.517414
v -7.293150 -2.044985 8.523104
v -7.234833 -2.044985 -8.516798
v -2.462539 -2.328853 -9.813542
v -7.418012 1.635015 -7.588231
v -7.414832 1.434345 -8.517414
v -7.415763 1.576240 -8.245262
v -7.234833 1.434345 -8.516798
v -7.238013 1.635015 -7.587615
v -7.235764 1.576240 -8.244646
v -7.473149 1.409056 8.522488
v -7.469569 1.635015 7.476209
v -7.472101 1.568833 8.216040
v -7.289570 1.635015 7.476825
v -7.293150 1.409056 8.523104
v -7.292102 1.568833 8.216656
vt 0.375000 0.000000
vt 0.611367 0.000000
vt 0.621007 0.003993
vt 0.625000 0.013632
vt 0.625000 0.234650
vt 0.620504 0.245504
vt 0.609650 0.250000
vt 0.375000 0.250000
vt 0.125000 0.500000
vt 0.375000 0.500000
vt 0.375000 0.750000
vt 0.125000 0.750000
vt 0.611367 0.750000
vt 0.611367 1.000000
vt 0.375000 1.000000
vt 0.625000 0.515350
vt 0.875000 0.515350
vt 0.875000 0.736368
vt 0.625000 0.736368
vt 0.875000 0.750000
vt 0.625000 0.750000
vt 0.625000 1.000000
vt 0.609650 0.500000
vt 0.625000 0.500000
vt 0.875000 0.500000
vt 0.625000 0.250000
vt 0.620504 0.504496
vt 0.621007 0.746007
vn 1.0000 -0.0000 0.0034
vn 0.0000 -1.0000 0.0000
vn 0.0034 0.0000 -1.0000
vn 0.0000 1.0000 0.0000
vn 0.0003 0.9960 -0.0891
vn 0.0016 0.8867 -0.4623
vn -0.0034 0.0000 1.0000
vn -0.0003 0.9960 0.0891
vn -0.0016 0.8867 0.4623
vn -1.0000 -0.0000 -0.0034
usemtl Material
s off
f 77/113/47 82/114/47 84/115/47 83/116/47 88/117/47 90/118/47 89/119/47 76/120/47
f 76/121/48 74/122/48 75/123/48 77/124/48
f 75/123/49 80/125/49 82/126/49 77/127/49
f 86/128/50 88/129/50 83/130/50 79/131/50
f 79/131/51 83/130/51 84/132/51 81/133/51
f 81/133/52 84/134/52 82/126/52 80/125/52
f 76/120/53 89/119/53 85/135/53 74/122/53
f 88/129/54 86/128/54 87/136/54 90/137/54
f 90/138/55 87/136/55 85/135/55 89/119/55
f 74/122/56 85/135/56 87/139/56 86/128/56 79/131/56 81/140/56 80/125/56 75/123/56
o RightSide.001_Cube.007
v -7.411508 -2.050000 -8.346339
v -7.410823 -2.050000 -8.546338
v -3.691530 2.050000 -8.333608
v -3.691530 -2.050000 -8.333608
v -3.690845 2.050000 -8.533607
v -3.690845 -2.050000 -8.533607
v -6.756923 2.050000 -8.344099
v -7.411508 1.328544 -8.346339
v -6.926342 2.025417 -8.344679
v -7.084215 1.953343 -8.345219
v -7.219784 1.838690 -8.345683
v -7.323810 1.689272 -8.346039
v -7.389204 1.515271 -8.346263
v -7.410823 1.328544 -8.546338
v -6.756238 2.050000 -8.544098
v -7.388519 1.515271 -8.546262
v -7.323126 1.689272 -8.546038
v -7.219100 1.838690 -8.545682
v -7.083531 1.953343 -8.545218
v -6.925657 2.025417 -8.544678
vt 0.375000 0.750000
vt 0.581009 0.750000
vt 0.592395 0.750500
vt 0.603004 0.751965
vt 0.620705 0.754295
vt 0.637699 0.757332
vt 0.646237 0.760868
vt 0.625000 0.793991
vt 0.625000 1.000000
vt 0.375000 1.000000
vt 0.375000 0.000000
vt 0.625000 0.000000
vt 0.625000 0.250000
vt 0.375000 0.250000
vt 0.125000 0.500000
vt 0.375000 0.500000
vt 0.125000 0.750000
vt 0.668991 0.500000
vt 0.875000 0.500000
vt 0.875000 0.750000
vt 0.668991 0.750000
vt 0.581009 0.500000
vt 0.646237 0.489132
vt 0.637699 0.492668
vt 0.620705 0.495705
vt 0.603004 0.498035
vt 0.592395 0.499500
vt 0.625000 0.456009
vn 0.0034 -0.0000 -1.0000
vn 1.0000 0.0000 0.0034
vn 0.0000 -1.0000 0.0000
vn 0.0000 1.0000 0.0000
vn -1.0000 0.0000 -0.0034
vn -0.1436 0.9896 -0.0005
vn -0.4153 0.9097 -0.0014
vn -0.6457 0.7636 -0.0022
vn -0.8207 0.5714 -0.0028
vn -0.9361 0.3518 -0.0032
vn -0.9929 0.1186 -0.0034
vn -0.0034 0.0000 1.0000
usemtl Material.001
s off
f 92/141/57 104/142/57 106/143/57 107/144/57 108/145/57 109/146/57 110/147/57 105/148/57 95/149/57 96/150/57
f 96/151/58 95/152/58 93/153/58 94/154/58
f 94/155/59 91/156/59 92/141/59 96/157/59
f 97/158/60 93/159/60 95/160/60 105/161/60
f 91/156/61 98/162/61 104/142/61 92/141/61
f 97/158/62 105/161/62 110/147/62 99/163/62
f 99/163/63 110/147/63 109/146/63 100/164/63
f 100/164/64 109/146/64 108/145/64 101/165/64
f 101/165/65 108/145/65 107/144/65 102/166/65
f 102/166/66 107/144/66 106/143/66 103/167/66
f 103/167/67 106/143/67 104/142/67 98/162/67
f 94/154/68 93/153/68 97/168/68 99/163/68 100/164/68 101/165/68 102/166/68 103/167/68 98/162/68 91/156/68
o Base.001_Cube.008
v -7.436978 -1.950000 8.522611
v -7.436978 -2.050000 8.522611
v -7.378660 -1.950000 -8.517291
v -7.378660 -2.050000 -8.517291
v -3.836999 -1.950000 8.534932
v -3.836999 -2.050000 8.534932
v -3.778681 -1.950000 -8.504970
v -3.778681 -2.050000 -8.504970
vt 0.625000 0.500000
vt 0.875000 0.500000
vt 0.875000 0.750000
vt 0.625000 0.750000
vt 0.375000 0.750000
vt 0.625000 1.000000
vt 0.375000 1.000000
vt 0.375000 0.000000
vt 0.625000 0.000000
vt 0.625000 0.250000
vt 0.375000 0.250000
vt 0.125000 0.500000
vt 0.375000 0.500000
vt 0.125000 0.750000
vn 0.0000 1.0000 0.0000
vn 0.0034 0.0000 -1.0000
vn 1.0000 0.0000 0.0034
vn 0.0000 -1.0000 0.0000
vn -1.0000 0.0000 -0.0034
vn -0.0034 0.0000 1.0000
usemtl Material.002
s off
f 111/169/69 115/170/69 117/171/69 113/172/69
f 114/173/70 113/172/70 117/174/70 118/175/70
f 118/176/71 117/177/71 115/178/71 116/179/71
f 116/180/72 112/181/72 114/173/72 118/182/72
f 112/181/73 111/169/73 113/172/73 114/173/73
f 116/179/74 115/178/74 111/169/74 112/181/74
o Back.001_Cube.009
v -3.900416 2.050000 8.534715
v -3.900416 -2.050000 8.534715
v -3.842098 2.050000 -8.505187
v -3.842098 -2.050000 -8.505187
v -3.720417 2.050000 8.535331
v -3.720417 -2.050000 8.535331
v -3.662100 2.050000 -8.504571
v -3.662100 -2.050000 -8.504571
vt 0.625000 0.500000
vt 0.875000 0.500000
vt 0.875000 0.750000
vt 0.625000 0.750000
vt 0.375000 0.750000
vt 0.625000 1.000000
vt 0.375000 1.000000
vt 0.375000 0.000000
vt 0.625000 0.000000
vt 0.625000 0.250000
vt 0.375000 0.250000
vt 0.125000 0.500000
vt 0.375000 0.500000
vt 0.125000 0.750000
vn 0.0000 1.0000 0.0000
vn 0.0034 0.0000 -1.0000
vn 1.0000 0.0000 0.0034
vn 0.0000 -1.0000 0.0000
vn -1.0000 0.0000 -0.0034
vn -0.0034 0.0000 1.0000
usemtl Material.003
s off
f 119/183/75 123/184/75 125/185/75 121/186/75
f 122/187/76 121/186/76 125/188/76 126/189/76
f 126/190/77 125/191/77 123/192/77 124/193/77
f 124/194/78 120/195/78 122/187/78 126/196/78
f 120/195/79 119/183/79 121/186/79 122/187/79
f 124/193/80 123/192/80 119/183/80 120/195/80
o LeftSide.001_Cube.010
v -7.469263 -2.050000 8.529153
v -7.468578 -2.050000 8.329154
v -3.749284 2.050000 8.541884
v -3.749284 -2.050000 8.541884
v -3.748600 2.050000 8.341886
v -3.748600 -2.050000 8.341886
v -6.814677 2.050000 8.531393
v -7.469263 1.328544 8.529153
v -6.984097 2.025417 8.530813
v -7.141970 1.953343 8.530273
v -7.277539 1.838690 8.529809
v -7.381565 1.689272 8.529453
v -7.446958 1.515271 8.529229
v -7.468578 1.328544 8.329154
v -6.813993 2.050000 8.331394
v -7.446273 1.515271 8.329230
v -7.380880 1.689272 8.329454
v -7.276855 1.838690 8.329810
v -7.141285 1.953343 8.330275
v -6.983412 2.025417 8.330814
vt 0.375000 0.750000
vt 0.581009 0.750000
vt 0.592395 0.750500
vt 0.603004 0.751965
vt 0.620705 0.754295
vt 0.637699 0.757332
vt 0.646237 0.760868
vt 0.625000 0.793991
vt 0.625000 1.000000
vt 0.375000 1.000000
vt 0.375000 0.000000
vt 0.625000 0.000000
vt 0.625000 0.250000
vt 0.375000 0.250000
vt 0.125000 0.500000
vt 0.375000 0.500000
vt 0.125000 0.750000
vt 0.668991 0.500000
vt 0.875000 0.500000
vt 0.875000 0.750000
vt 0.668991 0.750000
vt 0.581009 0.500000
vt 0.646237 0.489132
vt 0.637699 0.492668
vt 0.620705 0.495705
vt 0.603004 0.498035
vt 0.592395 0.499500
vt 0.625000 0.456009
vn 0.0034 -0.0000 -1.0000
vn 1.0000 0.0000 0.0034
vn 0.0000 -1.0000 0.0000
vn 0.0000 1.0000 0.0000
vn -1.0000 0.0000 -0.0034
vn -0.1436 0.9896 -0.0005
vn -0.4153 0.9097 -0.0014
vn -0.6457 0.7636 -0.0022
vn -0.8207 0.5714 -0.0028
vn -0.9361 0.3518 -0.0032
vn -0.9929 0.1186 -0.0034
vn -0.0034 0.0000 1.0000
usemtl Material.004
s off
f 128/197/81 140/198/81 142/199/81 143/200/81 144/201/81 145/202/81 146/203/81 141/204/81 131/205/81 132/206/81
f 132/207/82 131/208/82 129/209/82 130/210/82
f 130/211/83 127/212/83 128/197/83 132/213/83
f 133/214/84 129/215/84 131/216/84 141/217/84
f 127/212/85 134/218/85 140/198/85 128/197/85
f 133/214/86 141/217/86 146/203/86 135/219/86
f 135/219/87 146/203/87 145/202/87 136/220/87
f 136/220/88 145/202/88 144/201/88 137/221/88
f 137/221/89 144/201/89 143/200/89 138/222/89
f 138/222/90 143/200/90 142/199/90 139/223/90
f 139/223/91 142/199/91 140/198/91 134/218/91
f 130/210/92 129/209/92 133/224/92 135/219/92 136/220/92 137/221/92 138/222/92 139/223/92 134/218/92 127/212/92
